<svg width="20" height="20" viewBox="0 0 20 20" fill="none" xmlns="http://www.w3.org/2000/svg">
<path d="M19.2969 7.76059C19.2072 7.48246 19.0424 7.23456 18.8206 7.04433C18.5988 6.8541 18.3286 6.72897 18.0401 6.68277L13.5124 5.94695L11.4135 1.86828C11.2798 1.60863 11.0771 1.39082 10.8278 1.23875C10.5785 1.08668 10.2921 1.00623 10 1.00623C9.70795 1.00623 9.42154 1.08668 9.17219 1.23875C8.92285 1.39082 8.72022 1.60863 8.58652 1.86828L6.48762 5.94695L1.96 6.68277C1.67175 6.72969 1.40198 6.8551 1.18031 7.04524C0.958642 7.23538 0.793628 7.48291 0.703378 7.76066C0.613127 8.03842 0.601127 8.33566 0.668694 8.61979C0.736261 8.90391 0.880784 9.16394 1.08641 9.37133L4.31687 12.6279L3.61766 17.1613C3.57279 17.45 3.60842 17.7456 3.72064 18.0154C3.83286 18.2852 4.01731 18.5188 4.25372 18.6906C4.49012 18.8623 4.76931 18.9655 5.06059 18.9889C5.35186 19.0123 5.64394 18.9548 5.90469 18.8229L10 16.7569L14.0954 18.8229C14.3562 18.9546 14.6482 19.0118 14.9394 18.9883C15.2305 18.9648 15.5096 18.8616 15.7459 18.6899C15.9822 18.5182 16.1667 18.2847 16.279 18.015C16.3913 17.7454 16.4271 17.45 16.3825 17.1613L15.6832 12.6279L18.9137 9.37133C19.12 9.16434 19.265 8.90431 19.3326 8.62002C19.4002 8.33574 19.3878 8.03828 19.2969 7.76059ZM18.0262 8.49105L14.3516 12.1953L15.147 17.352C15.1569 17.4137 15.1495 17.477 15.1256 17.5348C15.1017 17.5926 15.0622 17.6426 15.0116 17.6794C14.961 17.7161 14.9013 17.7382 14.8389 17.743C14.7766 17.7479 14.7141 17.7354 14.6584 17.707L10 15.3569L5.34156 17.707C5.28588 17.7355 5.2234 17.748 5.16105 17.7431C5.0987 17.7383 5.03891 17.7162 4.98832 17.6795C4.93772 17.6427 4.89829 17.5927 4.8744 17.5349C4.8505 17.4771 4.84307 17.4138 4.85293 17.352L5.64844 12.1953L1.97387 8.49102C1.92999 8.44668 1.89915 8.39113 1.88475 8.33044C1.87034 8.26974 1.87291 8.20626 1.89219 8.14693C1.91146 8.08761 1.94669 8.03473 1.99402 7.9941C2.04135 7.95346 2.09895 7.92664 2.16051 7.91656L7.31055 7.07961L9.69801 2.44027C9.72656 2.38478 9.76984 2.33822 9.82312 2.30572C9.87639 2.27322 9.93759 2.25602 10 2.25602C10.0624 2.25602 10.1236 2.27322 10.1769 2.30572C10.2302 2.33822 10.2734 2.38478 10.302 2.44027L12.6895 7.07961L17.8395 7.91656C17.9011 7.92664 17.9587 7.95346 18.006 7.9941C18.0533 8.03473 18.0885 8.08761 18.1078 8.14693C18.1271 8.20626 18.1297 8.26974 18.1153 8.33044C18.1008 8.39113 18.07 8.44668 18.0261 8.49102L18.0262 8.49105Z" fill="white"/>
</svg>
